<?xml version="1.0" standalone="no"?>
<!DOCTYPE svg PUBLIC "-//W3C//DTD SVG 20010904//EN"
 "http://www.w3.org/TR/2001/REC-SVG-20010904/DTD/svg10.dtd">
<svg version="1.0" xmlns="http://www.w3.org/2000/svg"
 width="100.000000pt" height="100.000000pt" viewBox="0 0 100.000000 100.000000"
 preserveAspectRatio="xMidYMid meet">

<g transform="translate(0.000000,100.000000) scale(0.100000,-0.100000)"
fill="#2c3e50" stroke="none">
<path d="M665 901 c-51 -24 -169 -145 -190 -193 -16 -40 -20 -104 -7 -112 11
-7 65 50 85 89 21 41 129 143 161 151 74 18 140 -48 122 -122 -8 -32 -110
-140 -151 -161 -39 -20 -96 -74 -89 -85 8 -13 72 -9 112 7 48 21 169 139 193
190 24 51 24 99 0 150 -22 48 -44 69 -94 90 -48 20 -93 19 -142 -4z"/>
<path d="M472 527 c-72 -73 -132 -139 -132 -148 0 -19 20 -39 40 -39 20 0 280
260 280 281 0 19 -20 39 -40 39 -8 0 -75 -60 -148 -133z"/>
<path d="M285 521 c-51 -24 -169 -145 -190 -193 -20 -49 -19 -94 4 -143 22
-48 44 -69 94 -90 81 -34 143 -12 241 83 37 37 77 85 87 107 19 41 25 110 11
119 -11 7 -65 -50 -85 -89 -21 -41 -129 -143 -161 -151 -74 -18 -140 48 -122
122 8 32 110 140 151 161 39 20 96 74 89 85 -9 14 -78 8 -119 -11z"/>
<path d="M732 389 c-48 -14 -109 -80 -123 -131 -23 -89 12 -182 88 -229 57
-36 154 -34 210 3 62 41 88 90 88 168 0 77 -26 127 -85 166 -43 29 -125 39
-178 23z m35 -131 l33 -32 35 34 c27 26 38 31 47 22 9 -9 4 -20 -22 -47 l-34
-35 34 -35 c26 -27 31 -38 22 -47 -9 -9 -20 -4 -47 22 l-35 34 -35 -34 c-27
-26 -38 -31 -47 -22 -9 9 -4 20 22 47 l34 35 -33 34 c-18 19 -30 39 -27 45 11
16 17 14 53 -21z" fill="red" />
</g>
</svg>
